<svg xmlns="http://www.w3.org/2000/svg" xmlns:xlink="http://www.w3.org/1999/xlink" xml:space="preserve" version="1.1" style="shape-rendering:geometricPrecision;text-rendering:geometricPrecision;image-rendering:optimizeQuality;" viewBox="0 0 246 316.25" x="0px" y="0px" fill-rule="evenodd" clip-rule="evenodd"><defs><style type="text/css">
   
    .fil0 {fill:black}
   
  </style></defs><g><path class="fil0" d="M199 236l-74 17 7 -61 0 0 4 -64 0 -1 -12 -25 -1 -3 30 -41 -8 -12 15 -6 2 -29 29 9 53 118 2 10 -1 94 -32 0 1 -90 -29 -66 -8 70 22 80zm-27 -51c5,-1 4,-11 -2,-9l-30 7c-5,1 -3,11 2,10l30 -8z"/><path class="fil0" d="M121 253l-74 -17 22 -80 -8 -70 -29 66 1 90 -32 0 -1 -94 2 -10 53 -118 29 -9 1 29 16 6 -8 12 29 48 10 22 -3 63 -8 62zm0 -123c-2,0 -5,3 -5,6 0,3 3,6 5,6 3,0 5,-3 5,-6 0,-3 -2,-6 -5,-6zm-1 26c-3,0 -5,2 -5,6 0,3 2,5 5,5 3,0 5,-2 5,-5 0,-4 -2,-6 -5,-6zm-45 29c-6,-1 -4,-11 1,-9l30 7c5,1 4,11 -2,10l-29 -8z"/><polygon class="fil0" points="145,0 123,99 101,0 "/></g><text x="0" y="268" fill="#000000" font-size="5px" font-weight="bold" font-family="'Helvetica Neue', Helvetica, Arial-Unicode, Arial, Sans-serif">Created by Jasmine Christine</text><text x="0" y="273" fill="#000000" font-size="5px" font-weight="bold" font-family="'Helvetica Neue', Helvetica, Arial-Unicode, Arial, Sans-serif">from the Noun Project</text></svg>